<?xml version="1.0" encoding="utf-8"?>
<!-- Generator: Adobe Illustrator 24.1.0, SVG Export Plug-In . SVG Version: 6.00 Build 0)  -->
<svg version="1.1" id="Layer_1" xmlns="http://www.w3.org/2000/svg" xmlns:xlink="http://www.w3.org/1999/xlink" x="0px" y="0px"
	 viewBox="0 0 511 511" style="enable-background:new 0 0 511 511;" xml:space="preserve">
<style type="text/css">
	.st0{fill:#FFFFFF;}
	.st1{fill:none;}
</style>
<path class="st0" d="M485.4,127.7C468,82.4,434.9,46.5,389.9,24.1c-41.2-20.5-90.4-28.3-138.7-22c-35.7,4.7-69.7,17.1-98.1,36.1
	C97.4,75.3,61,135.3,55.5,198.8c-0.8,9.5,0.6,19.1,1.9,28.3c1.4,9.7,2.8,18.8,1.1,25.4l0,0c-0.4,1.5-4.5,15.1-35.6,46
	c-7.8,7.7-10.8,19.1-7.8,29.7c3,10.6,11.6,18.7,22.3,21.1c4.4,1,8.5,1.9,12,2.7c1.2,0.3,2.3,0.5,3.3,0.7c0.2,24.4,0.5,53.2,1,58.5
	c1.1,12.5,6.6,23,15.9,30.4c13,10.2,32.6,13.5,56.8,9.6c18.6-3,29.7,1.7,33,14c0.3,2.4,1.1,9.9,1.7,18.1c1,15.6,14.1,27.8,29.7,27.8
	h192.6c16.4,0,29.8-13.4,29.8-29.8v-53.3c0-37.6,5.9-63.1,17.6-76c28.9-31.8,49.5-67.6,59.7-103.5
	C502,207.4,500.3,166.8,485.4,127.7z M461.6,240.3c-8.9,31.4-27.2,63.1-53.1,91.5c-17,18.8-25.3,50.2-25.3,96.1v53.1H190.9
	c-0.7-10.7-1.9-20.1-1.9-20.4l-0.1-0.8l-0.2-0.8c-3.1-13.4-10.6-24-21.5-30.8c-12-7.4-27.3-9.7-45.5-6.7
	c-15.3,2.5-27.5,1.1-33.6-3.6c-1.7-1.4-4.1-3.8-4.5-9.3c-0.2-2.6-0.6-19.7-0.9-59.3c-0.1-12.2-8.4-22.5-20.3-25.2
	c-1.9-0.4-4.1-0.9-6.5-1.4c-3.5-0.8-7.4-1.6-11.8-2.6c-0.1,0-0.1,0-0.1,0c0-0.1-0.1-0.2-0.1-0.2c0,0,0,0,0.1-0.1
	c24.9-24.6,39.9-45.3,43.6-60c3.1-12.3,1.3-24.9-0.5-37c-1.2-7.9-2.2-15.3-1.7-21.4c2.3-26.9,11.5-54,26.5-78.3
	c14.7-23.8,34.7-44.5,57.8-60c24.7-16.4,54.2-27.3,85.4-31.3c42.5-5.5,85.6,1.3,121.5,19.1c38.2,19,66.2,49.3,80.9,87.5
	C470,171.3,471.4,205.6,461.6,240.3z"/>
<path class="st1" d="M350.9,128.1c-34.9-14.2-61.9,2.4-75.9,14.6c-14-12.2-41.1-28.7-76-14.5c-20.3,8.2-35.9,24.3-44.1,45.2
	c-8.6,22.1-7.8,47,2.3,68.6c23.1,49.3,70.6,90.7,106.4,116.7c3.4,2.5,7.4,3.7,11.4,3.7c4,0,8-1.2,11.4-3.7
	c51.8-37.7,87.6-77,106.2-116.8c10.1-21.5,10.9-46.5,2.3-68.6C386.8,152.4,371.2,136.3,350.9,128.1z M365.6,229.1
	c-10.9,23.3-35.5,59.4-90.5,100.7c-55.3-41.5-79.8-77.5-90.7-100.6c-6.6-14.1-7.2-30.5-1.5-44.9c5.2-13.2,14.9-23.2,27.5-28.3
	c5.5-2.2,10.7-3.2,15.6-3.2c16.1,0,28.2,10.4,34.7,17.8c3.7,4.1,8.9,6.5,14.4,6.5h0c5.5,0,10.8-2.4,14.4-6.5
	c8.5-9.6,26.2-24.3,50.1-14.6c12.6,5.1,22.3,15.2,27.5,28.3C372.8,198.6,372.2,215,365.6,229.1z"/>
</svg>
